<mxfile host="app.diagrams.net" agent="Mozilla/5.0 (Macintosh; Intel Mac OS X 10_15_7) AppleWebKit/537.36 (KHTML, like Gecko) Chrome/138.0.0.0 Safari/537.36" version="28.0.7">
  <diagram name="第 1 页" id="4yQItZhKM1FSXz17wNu8">
    <mxGraphModel dx="1426" dy="766" grid="1" gridSize="10" guides="1" tooltips="1" connect="1" arrows="1" fold="1" page="1" pageScale="1" pageWidth="827" pageHeight="1169" math="0" shadow="0">
      <root>
        <mxCell id="0" />
        <mxCell id="1" parent="0" />
        <mxCell id="TzoFvlbPLDbw41ZiefUc-1" value="" style="ellipse;fillColor=strokeColor;" vertex="1" parent="1">
          <mxGeometry x="495" y="20" width="14" height="14" as="geometry" />
        </mxCell>
        <mxCell id="TzoFvlbPLDbw41ZiefUc-2" value="创建完成" style="rounded=1;arcSize=20;strokeWidth=2" vertex="1" parent="1">
          <mxGeometry x="462" y="84" width="80" height="40" as="geometry" />
        </mxCell>
        <mxCell id="TzoFvlbPLDbw41ZiefUc-3" value="已邀请用户补充凭证" style="rounded=1;arcSize=20;strokeWidth=2" vertex="1" parent="1">
          <mxGeometry x="509" y="197" width="160" height="40" as="geometry" />
        </mxCell>
        <mxCell id="TzoFvlbPLDbw41ZiefUc-4" value="已取消" style="rounded=1;arcSize=20;strokeWidth=2" vertex="1" parent="1">
          <mxGeometry x="585" y="310" width="64" height="40" as="geometry" />
        </mxCell>
        <mxCell id="TzoFvlbPLDbw41ZiefUc-5" value="已拒绝" style="rounded=1;arcSize=20;strokeWidth=2" vertex="1" parent="1">
          <mxGeometry x="346" y="423" width="64" height="40" as="geometry" />
        </mxCell>
        <mxCell id="TzoFvlbPLDbw41ZiefUc-6" value="已审核" style="rounded=1;arcSize=20;strokeWidth=2" vertex="1" parent="1">
          <mxGeometry x="298" y="197" width="64" height="40" as="geometry" />
        </mxCell>
        <mxCell id="TzoFvlbPLDbw41ZiefUc-7" value="买家已发货" style="rounded=1;arcSize=20;strokeWidth=2" vertex="1" parent="1">
          <mxGeometry x="210" y="310" width="96" height="40" as="geometry" />
        </mxCell>
        <mxCell id="TzoFvlbPLDbw41ZiefUc-8" value="已收货" style="rounded=1;arcSize=20;strokeWidth=2" vertex="1" parent="1">
          <mxGeometry x="97" y="423" width="64" height="40" as="geometry" />
        </mxCell>
        <mxCell id="TzoFvlbPLDbw41ZiefUc-9" value="判责完成" style="rounded=1;arcSize=20;strokeWidth=2" vertex="1" parent="1">
          <mxGeometry x="20" y="649" width="80" height="40" as="geometry" />
        </mxCell>
        <mxCell id="TzoFvlbPLDbw41ZiefUc-10" value="待退回用户" style="rounded=1;arcSize=20;strokeWidth=2" vertex="1" parent="1">
          <mxGeometry x="150" y="536" width="96" height="40" as="geometry" />
        </mxCell>
        <mxCell id="TzoFvlbPLDbw41ZiefUc-11" value="退款完成" style="rounded=1;arcSize=20;strokeWidth=2" vertex="1" parent="1">
          <mxGeometry x="20" y="762" width="80" height="40" as="geometry" />
        </mxCell>
        <mxCell id="TzoFvlbPLDbw41ZiefUc-12" value="完结" style="rounded=1;arcSize=20;strokeWidth=2" vertex="1" parent="1">
          <mxGeometry x="285" y="875" width="48" height="40" as="geometry" />
        </mxCell>
        <mxCell id="TzoFvlbPLDbw41ZiefUc-13" value="已寄回用户" style="rounded=1;arcSize=20;strokeWidth=2" vertex="1" parent="1">
          <mxGeometry x="150" y="649" width="96" height="40" as="geometry" />
        </mxCell>
        <mxCell id="TzoFvlbPLDbw41ZiefUc-14" value="用户已签收" style="rounded=1;arcSize=20;strokeWidth=2" vertex="1" parent="1">
          <mxGeometry x="150" y="762" width="96" height="40" as="geometry" />
        </mxCell>
        <mxCell id="TzoFvlbPLDbw41ZiefUc-15" value="" style="ellipse;shape=endState;fillColor=strokeColor;" vertex="1" parent="1">
          <mxGeometry x="302" y="965" width="14" height="14" as="geometry" />
        </mxCell>
        <mxCell id="TzoFvlbPLDbw41ZiefUc-16" value="" style="curved=1;startArrow=none;;exitX=0.53;exitY=1;entryX=0.51;entryY=0;rounded=0;" edge="1" parent="1" source="TzoFvlbPLDbw41ZiefUc-1" target="TzoFvlbPLDbw41ZiefUc-2">
          <mxGeometry relative="1" as="geometry">
            <Array as="points" />
          </mxGeometry>
        </mxCell>
        <mxCell id="TzoFvlbPLDbw41ZiefUc-17" value="邀请补充凭证" style="curved=1;startArrow=none;;exitX=0.55;exitY=1;entryX=0.33;entryY=0;rounded=0;" edge="1" parent="1" source="TzoFvlbPLDbw41ZiefUc-2" target="TzoFvlbPLDbw41ZiefUc-3">
          <mxGeometry relative="1" as="geometry">
            <Array as="points">
              <mxPoint x="513" y="161" />
            </Array>
          </mxGeometry>
        </mxCell>
        <mxCell id="TzoFvlbPLDbw41ZiefUc-18" value="取消" style="curved=1;startArrow=none;;exitX=0.12;exitY=1;entryX=0.01;entryY=0.28;rounded=0;" edge="1" parent="1" source="TzoFvlbPLDbw41ZiefUc-2" target="TzoFvlbPLDbw41ZiefUc-4">
          <mxGeometry relative="1" as="geometry">
            <Array as="points">
              <mxPoint x="415" y="161" />
              <mxPoint x="415" y="274" />
            </Array>
          </mxGeometry>
        </mxCell>
        <mxCell id="TzoFvlbPLDbw41ZiefUc-19" value="拒绝" style="curved=1;startArrow=none;;exitX=0.01;exitY=0.67;entryX=0.01;entryY=0.28;rounded=0;" edge="1" parent="1" source="TzoFvlbPLDbw41ZiefUc-2" target="TzoFvlbPLDbw41ZiefUc-5">
          <mxGeometry relative="1" as="geometry">
            <Array as="points">
              <mxPoint x="175" y="161" />
              <mxPoint x="175" y="387" />
            </Array>
          </mxGeometry>
        </mxCell>
        <mxCell id="TzoFvlbPLDbw41ZiefUc-20" value="审核通过" style="curved=1;startArrow=none;;exitX=0.01;exitY=0.83;entryX=0.51;entryY=0;rounded=0;" edge="1" parent="1" source="TzoFvlbPLDbw41ZiefUc-2" target="TzoFvlbPLDbw41ZiefUc-6">
          <mxGeometry relative="1" as="geometry">
            <Array as="points">
              <mxPoint x="330" y="161" />
            </Array>
          </mxGeometry>
        </mxCell>
        <mxCell id="TzoFvlbPLDbw41ZiefUc-21" value="补充凭证" style="curved=1;startArrow=none;;exitX=0.56;exitY=0;entryX=1.01;entryY=0.99;rounded=0;" edge="1" parent="1" source="TzoFvlbPLDbw41ZiefUc-3" target="TzoFvlbPLDbw41ZiefUc-2">
          <mxGeometry relative="1" as="geometry">
            <Array as="points">
              <mxPoint x="617" y="161" />
            </Array>
          </mxGeometry>
        </mxCell>
        <mxCell id="TzoFvlbPLDbw41ZiefUc-22" value="取消" style="curved=1;startArrow=none;;exitX=0.5;exitY=1;entryX=0.35;entryY=0;rounded=0;" edge="1" parent="1" source="TzoFvlbPLDbw41ZiefUc-3" target="TzoFvlbPLDbw41ZiefUc-4">
          <mxGeometry relative="1" as="geometry">
            <Array as="points">
              <mxPoint x="589" y="274" />
            </Array>
          </mxGeometry>
        </mxCell>
        <mxCell id="TzoFvlbPLDbw41ZiefUc-23" value="取消" style="curved=1;startArrow=none;;exitX=1.01;exitY=0.64;entryX=0.66;entryY=0;rounded=0;" edge="1" parent="1" source="TzoFvlbPLDbw41ZiefUc-6" target="TzoFvlbPLDbw41ZiefUc-4">
          <mxGeometry relative="1" as="geometry">
            <Array as="points">
              <mxPoint x="645" y="274" />
            </Array>
          </mxGeometry>
        </mxCell>
        <mxCell id="TzoFvlbPLDbw41ZiefUc-24" value="拒绝" style="curved=1;startArrow=none;;exitX=0.67;exitY=1;entryX=0.4;entryY=0;rounded=0;" edge="1" parent="1" source="TzoFvlbPLDbw41ZiefUc-6" target="TzoFvlbPLDbw41ZiefUc-5">
          <mxGeometry relative="1" as="geometry">
            <Array as="points">
              <mxPoint x="359" y="274" />
              <mxPoint x="359" y="387" />
            </Array>
          </mxGeometry>
        </mxCell>
        <mxCell id="TzoFvlbPLDbw41ZiefUc-25" value="用户寄回" style="curved=1;startArrow=none;;exitX=0.11;exitY=1;entryX=0.5;entryY=0;rounded=0;" edge="1" parent="1" source="TzoFvlbPLDbw41ZiefUc-6" target="TzoFvlbPLDbw41ZiefUc-7">
          <mxGeometry relative="1" as="geometry">
            <Array as="points">
              <mxPoint x="258" y="274" />
            </Array>
          </mxGeometry>
        </mxCell>
        <mxCell id="TzoFvlbPLDbw41ZiefUc-26" value="拒绝" style="curved=1;startArrow=none;;exitX=1;exitY=0.88;entryX=0.82;entryY=0;rounded=0;" edge="1" parent="1" source="TzoFvlbPLDbw41ZiefUc-7" target="TzoFvlbPLDbw41ZiefUc-5">
          <mxGeometry relative="1" as="geometry">
            <Array as="points">
              <mxPoint x="436" y="387" />
            </Array>
          </mxGeometry>
        </mxCell>
        <mxCell id="TzoFvlbPLDbw41ZiefUc-27" value="收货" style="curved=1;startArrow=none;;exitX=0.03;exitY=1;entryX=0.5;entryY=0;rounded=0;" edge="1" parent="1" source="TzoFvlbPLDbw41ZiefUc-7" target="TzoFvlbPLDbw41ZiefUc-8">
          <mxGeometry relative="1" as="geometry">
            <Array as="points">
              <mxPoint x="129" y="387" />
            </Array>
          </mxGeometry>
        </mxCell>
        <mxCell id="TzoFvlbPLDbw41ZiefUc-28" value="判责-用户责任" style="curved=1;startArrow=none;;exitX=0.12;exitY=1;entryX=0.5;entryY=0;rounded=0;" edge="1" parent="1" source="TzoFvlbPLDbw41ZiefUc-8" target="TzoFvlbPLDbw41ZiefUc-9">
          <mxGeometry relative="1" as="geometry">
            <Array as="points">
              <mxPoint x="60" y="500" />
            </Array>
          </mxGeometry>
        </mxCell>
        <mxCell id="TzoFvlbPLDbw41ZiefUc-29" value="判责-商家/平台责任" style="curved=1;startArrow=none;;exitX=0.88;exitY=1;entryX=0.5;entryY=0;rounded=0;" edge="1" parent="1" source="TzoFvlbPLDbw41ZiefUc-8" target="TzoFvlbPLDbw41ZiefUc-10">
          <mxGeometry relative="1" as="geometry">
            <Array as="points">
              <mxPoint x="198" y="500" />
            </Array>
          </mxGeometry>
        </mxCell>
        <mxCell id="TzoFvlbPLDbw41ZiefUc-30" value="退款" style="curved=1;startArrow=none;;exitX=0.5;exitY=1;entryX=0.5;entryY=0;rounded=0;" edge="1" parent="1" source="TzoFvlbPLDbw41ZiefUc-9" target="TzoFvlbPLDbw41ZiefUc-11">
          <mxGeometry relative="1" as="geometry">
            <Array as="points" />
          </mxGeometry>
        </mxCell>
        <mxCell id="TzoFvlbPLDbw41ZiefUc-31" value="完结" style="curved=1;startArrow=none;;exitX=0.5;exitY=1;entryX=0;entryY=0.36;rounded=0;" edge="1" parent="1" source="TzoFvlbPLDbw41ZiefUc-11" target="TzoFvlbPLDbw41ZiefUc-12">
          <mxGeometry relative="1" as="geometry">
            <Array as="points">
              <mxPoint x="60" y="839" />
            </Array>
          </mxGeometry>
        </mxCell>
        <mxCell id="TzoFvlbPLDbw41ZiefUc-32" value="发货" style="curved=1;startArrow=none;;exitX=0.5;exitY=1;entryX=0.5;entryY=0;rounded=0;" edge="1" parent="1" source="TzoFvlbPLDbw41ZiefUc-10" target="TzoFvlbPLDbw41ZiefUc-13">
          <mxGeometry relative="1" as="geometry">
            <Array as="points" />
          </mxGeometry>
        </mxCell>
        <mxCell id="TzoFvlbPLDbw41ZiefUc-33" value="物流签收" style="curved=1;startArrow=none;;exitX=0.5;exitY=1;entryX=0.5;entryY=0;rounded=0;" edge="1" parent="1" source="TzoFvlbPLDbw41ZiefUc-13" target="TzoFvlbPLDbw41ZiefUc-14">
          <mxGeometry relative="1" as="geometry">
            <Array as="points" />
          </mxGeometry>
        </mxCell>
        <mxCell id="TzoFvlbPLDbw41ZiefUc-34" value="完结" style="curved=1;startArrow=none;;exitX=0.5;exitY=1;entryX=0;entryY=0.19;rounded=0;" edge="1" parent="1" source="TzoFvlbPLDbw41ZiefUc-14" target="TzoFvlbPLDbw41ZiefUc-12">
          <mxGeometry relative="1" as="geometry">
            <Array as="points">
              <mxPoint x="198" y="839" />
            </Array>
          </mxGeometry>
        </mxCell>
        <mxCell id="TzoFvlbPLDbw41ZiefUc-35" value="完结" style="curved=1;startArrow=none;;exitX=0.51;exitY=1;entryX=1;entryY=0.01;rounded=0;" edge="1" parent="1" source="TzoFvlbPLDbw41ZiefUc-5" target="TzoFvlbPLDbw41ZiefUc-12">
          <mxGeometry relative="1" as="geometry">
            <Array as="points">
              <mxPoint x="378" y="839" />
            </Array>
          </mxGeometry>
        </mxCell>
        <mxCell id="TzoFvlbPLDbw41ZiefUc-36" value="完结" style="curved=1;startArrow=none;;exitX=0.51;exitY=1;entryX=1;entryY=0.39;rounded=0;" edge="1" parent="1" source="TzoFvlbPLDbw41ZiefUc-4" target="TzoFvlbPLDbw41ZiefUc-12">
          <mxGeometry relative="1" as="geometry">
            <Array as="points">
              <mxPoint x="617" y="839" />
            </Array>
          </mxGeometry>
        </mxCell>
        <mxCell id="TzoFvlbPLDbw41ZiefUc-37" value="" style="curved=1;startArrow=none;;exitX=0.5;exitY=1;entryX=0.5;entryY=0;rounded=0;" edge="1" parent="1" source="TzoFvlbPLDbw41ZiefUc-12" target="TzoFvlbPLDbw41ZiefUc-15">
          <mxGeometry relative="1" as="geometry">
            <Array as="points" />
          </mxGeometry>
        </mxCell>
      </root>
    </mxGraphModel>
  </diagram>
</mxfile>
